<svg width="198" height="168" viewBox="0 0 198 168" fill="none" xmlns="http://www.w3.org/2000/svg">
<path d="M10.86 9.36001C10.86 12.36 11.18 15.44 11.82 18.6C12.46 21.72 13.44 23.94 14.76 25.26C15 24.98 15.32 24.4 15.72 23.52C16.32 22.16 16.9001 21.1 17.46 20.34C18.06 19.58 18.84 19.2 19.8001 19.2L20.7601 20.52C23.04 23.8 24.66 25.68 25.6201 26.16C25.86 25 26.6 22.7 27.8401 19.26C28.7601 16.74 29.4801 14.62 30.0001 12.9C30.5201 11.14 30.7801 9.66001 30.7801 8.46001C30.7801 8.22001 30.7401 7.86001 30.66 7.38001C30.7 6.78001 31 6.48001 31.56 6.48001C32.4001 6.60001 33.8001 6.86001 35.7601 7.26001C37.7601 7.62001 39.6201 8.00001 41.3401 8.40001C41.3401 8.64001 41.2401 9.18001 41.0401 10.02C40.8801 10.86 40.6801 11.62 40.44 12.3C39.7201 14.98 38.8201 18.6 37.7401 23.16C36.8601 26.84 36.1401 29.7 35.5801 31.74C35.0601 33.78 34.3801 35.84 33.5401 37.92C33.34 38.44 33.12 39.22 32.88 40.26C32.6001 41.38 32.3001 42.36 31.9801 43.2C31.7 44.04 31.26 44.9 30.66 45.78L29.5201 44.88C28.9601 44.16 28.3401 43.48 27.6601 42.84C26.9801 41.88 26.04 40.74 24.84 39.42C23.64 38.06 22.5 36.82 21.42 35.7L19.8001 33.96C19 34.52 18.22 35.38 17.46 36.54C16.74 37.66 15.82 39.24 14.7 41.28C13.34 43.76 12.4 45.26 11.88 45.78H10.86C10.62 45.58 10.4 45.28 10.2 44.88C10.04 44.48 9.90005 44.08 9.78005 43.68C9.54005 42.8 9.26005 42.16 8.94005 41.76C8.46005 40.64 7.92005 39.26 7.32005 37.62C6.72005 35.94 6.16005 34.3 5.64005 32.7C4.44005 29.18 3.56005 26.7 3.00005 25.26C2.72005 24.42 2.40005 22.82 2.04005 20.46C1.88005 19.26 1.72005 18.32 1.56005 17.64C1.44005 16.96 1.26005 16.52 1.02005 16.32C0.340049 15.04 4.89131e-05 12.72 4.89131e-05 9.36001H1.02005C1.54005 9.56001 2.14005 9.66001 2.82005 9.66001C3.54005 9.66001 4.70005 9.46001 6.30005 9.06001C7.70005 8.62001 8.88005 8.40001 9.84005 8.40001C10.48 8.40001 10.82 8.72001 10.86 9.36001ZM63.811 34.98C63.851 34.34 63.891 33.72 63.931 33.12C63.931 32.12 63.811 31.42 63.571 31.02C63.331 30.58 62.951 30.18 62.431 29.82C61.951 29.42 61.631 29.12 61.471 28.92C60.551 28.92 59.731 29.1 59.011 29.46C58.331 29.82 57.871 30.7 57.631 32.1C57.511 33.06 57.451 34.22 57.451 35.58C57.451 38.26 57.611 41.36 57.931 44.88C57.931 45.28 57.771 45.54 57.451 45.66C57.131 45.74 56.611 45.78 55.891 45.78H47.131C47.291 45.26 47.371 44.46 47.371 43.38C47.371 41.66 47.151 39.08 46.711 35.64C46.311 31.88 46.111 29.34 46.111 28.02C46.111 24.94 46.391 21.24 46.951 16.92C47.511 12.6 48.231 9.76001 49.111 8.40001C49.391 8.40001 49.851 8.56001 50.491 8.88001C51.131 9.20001 51.631 9.36001 51.991 9.36001C52.351 9.56001 52.831 9.66001 53.431 9.66001C53.871 9.66001 54.571 9.58001 55.531 9.42001C56.331 9.22001 57.051 9.12001 57.691 9.12001C58.211 9.12001 58.651 9.20001 59.011 9.36001C59.011 10.12 58.751 11.42 58.231 13.26C57.991 14.18 57.751 15.12 57.511 16.08C57.311 17.04 57.211 17.88 57.211 18.6C57.211 19.64 57.451 20.52 57.931 21.24C58.611 20.6 59.531 19.96 60.691 19.32C61.891 18.64 62.931 18.3 63.811 18.3C64.411 18.14 65.031 18.06 65.671 18.06C67.831 18.06 69.391 18.94 70.351 20.7C71.311 22.42 71.791 24.58 71.791 27.18C71.791 29.58 71.451 31.84 70.771 33.96V42.84C70.771 43.28 70.591 43.74 70.231 44.22C69.911 44.66 69.431 45.18 68.791 45.78H62.911V44.88L63.811 34.98ZM95.3279 34.26C96.0079 33.1 96.3479 32 96.3479 30.96C96.2279 30.68 96.1079 30.42 95.9879 30.18C95.8679 29.9 95.6479 29.76 95.3279 29.76C94.5279 29.6 93.6279 29.52 92.6279 29.52C91.5079 29.52 90.6879 29.6 90.1679 29.76C89.1679 29.96 88.3279 30.32 87.6479 30.84C87.0079 31.32 86.5279 31.78 86.2079 32.22C85.9279 32.62 85.5079 33.3 84.9479 34.26C84.8679 34.74 84.8279 35.34 84.8279 36.06C84.8279 37.54 85.2079 38.48 85.9679 38.88H89.1479C91.0279 38.56 93.0879 37.02 95.3279 34.26ZM88.3079 23.7C88.9479 23.3 89.8279 22.92 90.9479 22.56C92.3079 22 93.3479 21.54 94.0679 21.18C94.8279 20.82 95.4479 20.4 95.9279 19.92V18.84C96.1679 18.28 96.6079 17.88 97.2479 17.64C97.9279 17.4 98.9679 17.12 100.368 16.8C101.568 16.56 102.348 16.36 102.708 16.2C103.148 16.2 103.448 16.24 103.608 16.32C103.768 16.36 104.048 16.58 104.448 16.98C104.448 18.26 104.328 20.14 104.088 22.62C103.808 24.86 103.668 26.76 103.668 28.32C103.668 30.48 103.928 32.36 104.448 33.96C104.808 34.32 105.588 34.94 106.788 35.82C108.068 36.74 109.068 37.54 109.788 38.22C110.508 38.86 110.968 39.6 111.168 40.44C110.888 41.08 110.368 41.96 109.608 43.08C108.848 44.2 108.008 45.2 107.088 46.08C106.208 46.96 105.368 47.4 104.568 47.4C104.248 47.4 103.928 47.3 103.608 47.1C103.208 47.1 102.648 46.8 101.928 46.2C101.248 45.6 100.368 44.76 99.2879 43.68C97.8879 42.2 97.0479 41.46 96.7679 41.46C94.6479 42.82 93.1879 43.74 92.3879 44.22C91.6279 44.7 90.5479 45.22 89.1479 45.78C87.7879 46.3 86.4479 46.56 85.1279 46.56C82.8879 46.56 80.9279 45.66 79.2479 43.86C79.1679 43.62 79.0279 43.38 78.8279 43.14C78.6679 42.86 78.5079 42.6 78.3479 42.36C77.9479 41.84 77.6479 41.38 77.4479 40.98C77.2879 40.54 77.2079 40.02 77.2079 39.42C77.4879 36.54 78.1479 34.12 79.1879 32.16C80.2679 30.16 81.5479 28.54 83.0279 27.3C84.5079 26.02 86.2679 24.82 88.3079 23.7ZM121.726 30.12C121.366 30.12 120.946 30.18 120.466 30.3C120.186 30.34 119.906 30.38 119.626 30.42C119.386 30.46 119.146 30.48 118.906 30.48C118.346 30.48 117.926 30.36 117.646 30.12C116.926 28.04 116.566 26.14 116.566 24.42C116.566 22.78 116.926 21.36 117.646 20.16C118.406 20.16 119.226 20.2 120.106 20.28C120.586 20.32 121.066 20.36 121.546 20.4C122.146 20.4 122.626 20.26 122.986 19.98C123.346 19.66 123.646 19.06 123.886 18.18C124.126 17.3 124.346 15.98 124.546 14.22C124.906 13.58 125.086 12.98 125.086 12.42C125.086 12.14 125.106 11.92 125.146 11.76C125.226 11.6 125.366 11.4 125.566 11.16C126.006 10.84 126.726 10.54 127.726 10.26C129.006 9.90001 129.946 9.56001 130.546 9.24001C130.866 9.24001 131.306 9.40001 131.866 9.72001C132.146 9.88001 132.406 10.02 132.646 10.14C132.926 10.26 133.206 10.32 133.486 10.32H134.386C134.186 10.76 133.546 14.04 132.466 20.16C133.626 19.92 135.166 19.68 137.086 19.44C138.086 19.28 139.106 19.12 140.146 18.96C141.226 18.76 142.266 18.52 143.266 18.24V20.16C142.786 20.4 142.446 21.02 142.246 22.02C142.086 22.98 141.986 24.22 141.946 25.74C141.906 26.5 141.846 27.2 141.766 27.84C141.686 28.48 141.566 28.9 141.406 29.1C141.166 29.34 140.606 29.54 139.726 29.7C138.886 29.82 137.926 29.88 136.846 29.88C135.766 29.88 134.726 29.82 133.726 29.7C132.766 29.54 132.026 29.34 131.506 29.1V37.02H132.346C132.666 36.78 133.006 36.54 133.366 36.3C133.726 36.06 133.986 35.86 134.146 35.7C134.306 35.54 134.386 35.3 134.386 34.98C135.226 34.98 135.866 35.12 136.306 35.4C136.746 35.64 137.206 36.02 137.686 36.54C138.286 37.22 138.846 37.68 139.366 37.92V38.88C138.806 39.2 138.386 39.56 138.106 39.96C137.826 40.36 137.526 40.88 137.206 41.52C137.006 42.08 136.766 42.52 136.486 42.84C135.486 43.8 133.866 44.76 131.626 45.72C129.386 46.64 127.466 47.1 125.866 47.1C125.346 47.1 124.906 47.04 124.546 46.92C122.426 45.36 121.366 43.18 121.366 40.38C121.366 39.22 121.566 37.68 121.966 35.76C122.286 34.08 122.446 32.94 122.446 32.34C122.446 31.34 122.206 30.6 121.726 30.12ZM152.979 5.28001V0.420012L159.819 9.77516e-06L159.459 5.58001C159.539 6.18001 159.419 7.46001 159.099 9.42001C158.819 11.34 158.299 13.06 157.539 14.58C157.339 14.86 157.039 15.08 156.639 15.24C156.239 15.36 155.819 15.42 155.379 15.42C154.779 15.42 154.239 15.28 153.759 15C153.279 14.68 153.019 14.26 152.979 13.74C152.899 13.18 152.859 12.28 152.859 11.04L152.919 7.92001C152.959 7.28001 152.979 6.40001 152.979 5.28001ZM191.164 20.22C191.844 20.22 192.824 20.38 194.104 20.7C195.344 21.06 196.364 21.24 197.164 21.24C197.604 21.76 197.844 22.1 197.884 22.26C197.964 22.42 198.004 22.72 198.004 23.16L196.084 29.16L195.064 30.06C194.264 30.06 193.144 29.68 191.704 28.92C190.784 28.44 190.024 28.1 189.424 27.9C188.824 27.66 188.184 27.54 187.504 27.54C186.704 27.54 185.964 27.7 185.284 28.02V29.16L187.624 30C189.344 30.56 190.744 31.1 191.824 31.62C192.904 32.1 193.824 32.78 194.584 33.66C195.344 34.5 195.724 35.56 195.724 36.84C195.724 37.68 195.504 38.72 195.064 39.96C195.064 40.44 194.544 41.04 193.504 41.76C192.504 42.48 191.724 42.84 191.164 42.84C188.964 44 187.084 44.86 185.524 45.42C183.964 45.98 182.524 46.26 181.204 46.26C179.924 46.26 178.644 45.98 177.364 45.42C176.124 44.86 174.784 44 173.344 42.84C172.784 42.52 172.044 42.18 171.124 41.82C170.364 41.54 169.804 41.26 169.444 40.98C169.804 40.58 170.424 39.74 171.304 38.46C172.224 37.02 173.064 35.92 173.824 35.16C174.584 34.36 175.424 33.96 176.344 33.96C176.824 34.84 177.644 35.62 178.804 36.3C180.004 36.94 181.124 37.26 182.164 37.26C182.644 37.26 183.044 37.18 183.364 37.02L184.324 36.06C181.684 35.34 179.524 34.4 177.844 33.24C176.204 32.04 175.384 30.3 175.384 28.02C175.424 26.74 175.744 25.82 176.344 25.26C177.304 24.22 178.124 23.44 178.804 22.92C179.524 22.36 180.384 21.8 181.384 21.24C182.064 21 182.764 20.86 183.484 20.82C184.204 20.74 185.144 20.7 186.304 20.7C187.464 20.7 188.404 20.68 189.124 20.64C189.844 20.56 190.524 20.42 191.164 20.22ZM35.344 90C34.504 90.24 33.804 90.82 33.244 91.74C32.684 92.66 32.404 93.64 32.404 94.68C32.404 96.28 33.084 97.44 34.444 98.16H38.104C38.664 97.52 39.224 96.82 39.784 96.06C40.384 95.3 40.864 94.5 41.224 93.66C41.584 92.82 41.764 91.88 41.764 90.84C41.764 90.04 41.444 89.54 40.804 89.34C40.164 89.1 39.264 88.98 38.104 88.98C36.864 89.02 35.944 89.36 35.344 90ZM31.444 105.78C29.284 104.9 27.684 103.58 26.644 101.82C25.604 100.02 25.084 97.98 25.084 95.7C25.084 93.18 25.664 90.6 26.824 87.96C27.984 85.32 29.524 83.08 31.444 81.24C31.884 80.76 32.384 80.42 32.944 80.22C33.504 80.02 34.244 79.84 35.164 79.68C36.084 79.52 36.844 79.36 37.444 79.2C38.044 79 38.644 78.7 39.244 78.3C42.404 78.66 44.744 79.9 46.264 82.02C47.824 84.14 48.604 86.72 48.604 89.76C48.604 92.44 48.044 95.1 46.924 97.74C45.804 100.38 44.264 102.54 42.304 104.22C40.344 105.9 38.164 106.74 35.764 106.74C34.324 106.74 32.884 106.42 31.444 105.78ZM70.0329 104.88C69.7129 104.88 69.5529 103.76 69.5529 101.52C69.5529 99.32 69.6729 96.54 69.9129 93.18L70.0329 90.06C70.0329 89.5 69.6929 89.2 69.0129 89.16C67.0929 89.16 65.6129 89.8 64.5729 91.08C63.5729 92.32 63.0729 93.98 63.0729 96.06C62.9929 96.74 62.8929 97.58 62.7729 98.58C62.6529 99.54 62.5929 100.44 62.5929 101.28C62.5929 102.68 62.7529 103.88 63.0729 104.88H62.1129H54.2529C54.2529 103.56 54.2129 101.46 54.1329 98.58C54.0129 96.46 53.9529 94.34 53.9529 92.22C53.9529 88.82 54.1729 86.12 54.6129 84.12C54.6129 83.8 54.6329 83.52 54.6729 83.28C54.7529 83 54.8329 82.74 54.9129 82.5C55.1129 82.1 55.2129 81.68 55.2129 81.24C55.8929 81 56.5129 80.86 57.0729 80.82C57.6729 80.74 58.3729 80.7 59.1729 80.7C60.0129 80.7 60.7129 80.68 61.2729 80.64C61.8329 80.56 62.4329 80.42 63.0729 80.22H64.0929V83.16L65.0529 82.32C65.4529 82.04 65.8129 81.68 66.1329 81.24C66.4529 80.84 66.7529 80.5 67.0329 80.22C67.3529 80.22 67.8329 80.06 68.4729 79.74C69.1129 79.38 69.6329 79.2 70.0329 79.2C73.8329 79.2 76.4729 80.36 77.9529 82.68C79.4329 85 80.1729 88.14 80.1729 92.1C80.1729 94.34 79.8729 97.74 79.2729 102.3L78.8529 105.78C78.3729 105.78 77.5329 105.82 76.3329 105.9C75.3329 106.02 74.3529 106.08 73.3929 106.08C71.5129 106.08 70.3929 105.68 70.0329 104.88ZM113.91 104.88C112.43 105.64 110.57 106.02 108.33 106.02C106.25 106.02 103.47 105.64 99.9903 104.88C100.79 102.08 101.35 100 101.67 98.64C101.99 97.28 102.15 95.72 102.15 93.96C102.75 92.04 103.05 89.14 103.05 85.26C103.65 83.74 103.95 81.84 103.95 79.56C103.95 77.96 103.77 75.68 103.41 72.72C103.17 70.88 103.05 69.76 103.05 69.36C104.77 68.52 106.29 67.84 107.61 67.32C108.97 66.76 110.09 66.48 110.97 66.48C111.49 66.84 111.97 67.28 112.41 67.8C112.85 68.32 113.39 69.04 114.03 69.96C114.87 71.2 115.63 72.18 116.31 72.9C117.03 73.62 117.89 74.12 118.89 74.4C119.37 73.88 120.09 72.94 121.05 71.58C121.93 70.34 122.63 69.4 123.15 68.76C123.71 68.12 124.27 67.66 124.83 67.38C125.47 66.94 126.43 66.72 127.71 66.72C128.39 66.72 129.37 66.8 130.65 66.96C131.09 67 131.53 67.04 131.97 67.08C132.41 67.12 132.83 67.14 133.23 67.14C134.35 67.14 135.13 66.92 135.57 66.48H137.61V67.38C136.89 69.1 136.53 73.5 136.53 80.58C136.53 85.78 136.73 90.84 137.13 95.76C137.53 100.68 138.01 103.72 138.57 104.88H137.61C137.21 105.68 135.81 106.08 133.41 106.08C133.17 106.08 131.91 106.02 129.63 105.9L127.77 105.78L126.81 104.88C127.05 104.4 127.23 103.04 127.35 100.8C127.47 98.56 127.53 95.96 127.53 93C127.53 90 127.47 87.14 127.35 84.42C127.23 81.7 127.05 79.66 126.81 78.3C126.21 78.5 125.63 79 125.07 79.8C124.51 80.56 123.81 81.68 122.97 83.16C121.97 84.92 121.09 86.3 120.33 87.3C119.61 88.26 118.79 88.88 117.87 89.16L116.61 87.72C115.61 86.56 114.75 85.68 114.03 85.08C113.35 84.44 112.69 84.12 112.05 84.12C112.05 88.6 112.09 92.24 112.17 95.04C112.29 97.84 112.53 100.78 112.89 103.86H113.91V104.88ZM159.67 109.92C160.07 109.88 160.33 109.34 160.45 108.3C160.61 107.3 160.65 106.16 160.57 104.88C158.85 105.36 157.27 105.6 155.83 105.6C152.19 105.6 149.39 104.26 147.43 101.58C145.51 98.9 144.55 95.44 144.55 91.2C144.55 88.28 144.99 85.32 145.87 82.32C146.51 82.32 147.75 82.16 149.59 81.84C151.59 81.52 152.99 81.36 153.79 81.36C155.03 81.36 155.65 81.68 155.65 82.32C155.45 83.04 155.35 84.5 155.35 86.7C155.35 88.74 155.45 90.72 155.65 92.64C155.89 94.56 156.25 96.02 156.73 97.02C156.73 97.3 156.81 97.52 156.97 97.68C157.17 97.84 157.39 97.92 157.63 97.92C158.99 97.92 160.33 96.34 161.65 93.18C163.01 89.98 163.99 86.64 164.59 83.16C164.67 82.96 164.73 82.66 164.77 82.26C164.81 81.82 164.87 81.46 164.95 81.18C165.07 80.86 165.27 80.54 165.55 80.22C166.43 80.22 167.45 80.16 168.61 80.04C169.81 79.88 170.75 79.6 171.43 79.2L173.53 80.22C173.25 81.26 173.03 82.32 172.87 83.4C172.71 84.44 172.57 85.46 172.45 86.46C172.21 88.38 171.99 89.92 171.79 91.08C171.47 93.32 171.03 95.3 170.47 97.02C169.87 98.78 169.31 101.06 168.79 103.86C168.31 106.14 167.85 108.02 167.41 109.5C166.97 111.02 166.35 112.46 165.55 113.82C164.87 114.98 163.81 115.86 162.37 116.46C160.93 117.1 159.37 117.42 157.69 117.42C156.05 117.42 154.51 117.1 153.07 116.46C151.63 115.86 150.55 114.98 149.83 113.82C150.31 113.3 151.03 112.64 151.99 111.84C152.75 111.2 153.33 110.66 153.73 110.22C154.17 109.82 154.55 109.36 154.87 108.84C155.39 109.36 155.89 109.66 156.37 109.74C156.85 109.86 157.65 109.92 158.77 109.92H159.67ZM15.66 138.3C14.94 139.58 14.58 143.2 14.58 149.16H15.66C16.54 148.64 17.66 148.24 19.02 147.96C19.46 147.84 19.88 147.72 20.28 147.6C20.72 147.48 21.14 147.34 21.54 147.18C22.26 145.86 22.62 144.84 22.62 144.12C22.7 143.56 22.74 143.18 22.74 142.98C22.74 141.26 22.02 140.06 20.58 139.38C19.14 138.66 17.5001 138.3 15.66 138.3ZM1.86005 148.02C1.42005 146.9 1.20005 145.5 1.20005 143.82C1.20005 142.3 1.48005 139.86 2.04005 136.5C2.24005 135.26 2.42005 134 2.58005 132.72C2.74005 131.4 2.82005 130.28 2.82005 129.36C4.02005 128.4 5.88005 127.68 8.40005 127.2C10.92 126.68 13.7 126.42 16.7401 126.42C19.7801 126.42 22.6201 126.68 25.26 127.2C27.9001 127.68 29.9201 128.4 31.3201 129.36C31.7601 129.8 32.1601 130.34 32.5201 130.98C32.9201 131.58 33.3801 132.38 33.9001 133.38C34.7801 135.14 35.5801 136.4 36.3 137.16C36.3 137.68 36.22 138.38 36.0601 139.26C35.9401 140.14 35.8201 140.98 35.7 141.78C35.4601 143.22 35.3401 144 35.3401 144.12C34.7401 145 34.3001 145.8 34.02 146.52C33.7401 147.2 33.4401 148.02 33.1201 148.98C32.9601 149.66 32.72 150.36 32.4 151.08C31.8 152 30.48 152.92 28.44 153.84C26.4401 154.76 24.2201 155.52 21.78 156.12C19.3401 156.72 17.3001 157.02 15.66 157.02V165.78H14.58C13.74 165.78 12.44 165.86 10.68 166.02C8.92005 166.18 7.60005 166.26 6.72005 166.26C5.28005 166.26 3.98005 166.1 2.82005 165.78C2.82005 164.78 2.66005 163.32 2.34005 161.4C2.02005 159.48 1.86005 158.02 1.86005 157.02V148.02ZM53.1624 130.44C53.1624 131.04 53.4624 131.36 54.0624 131.4C53.2624 133.4 52.8624 136.9 52.8624 141.9C52.8624 144.38 52.9224 146.76 53.0424 149.04L53.1624 153.96V163.86C53.1624 164.22 52.9824 164.56 52.6224 164.88C52.3024 165.2 52.1424 165.5 52.1424 165.78C51.6224 165.62 50.9624 165.54 50.1624 165.54C49.4024 165.54 48.6024 165.6 47.7624 165.72C46.8024 165.8 46.0824 165.84 45.6024 165.84C44.3624 165.84 43.5824 165.52 43.2624 164.88C43.5424 164.04 43.6824 162.88 43.6824 161.4C43.6824 159.88 43.5424 158.3 43.2624 156.66C42.9824 154.98 42.6624 153.8 42.3024 153.12C42.3024 151.76 42.4624 149.44 42.7824 146.16C43.1024 142.8 43.2624 140.48 43.2624 139.2V130.44H44.2224H53.1624ZM77.574 154.26C78.254 153.1 78.594 152 78.594 150.96C78.474 150.68 78.354 150.42 78.234 150.18C78.114 149.9 77.894 149.76 77.574 149.76C76.774 149.6 75.874 149.52 74.874 149.52C73.754 149.52 72.934 149.6 72.414 149.76C71.414 149.96 70.574 150.32 69.894 150.84C69.254 151.32 68.774 151.78 68.454 152.22C68.174 152.62 67.754 153.3 67.194 154.26C67.114 154.74 67.074 155.34 67.074 156.06C67.074 157.54 67.454 158.48 68.214 158.88H71.394C73.274 158.56 75.334 157.02 77.574 154.26ZM70.554 143.7C71.194 143.3 72.074 142.92 73.194 142.56C74.554 142 75.594 141.54 76.314 141.18C77.074 140.82 77.694 140.4 78.174 139.92V138.84C78.414 138.28 78.854 137.88 79.494 137.64C80.174 137.4 81.214 137.12 82.614 136.8C83.814 136.56 84.594 136.36 84.954 136.2C85.394 136.2 85.694 136.24 85.854 136.32C86.014 136.36 86.294 136.58 86.694 136.98C86.694 138.26 86.574 140.14 86.334 142.62C86.054 144.86 85.914 146.76 85.914 148.32C85.914 150.48 86.174 152.36 86.694 153.96C87.054 154.32 87.834 154.94 89.034 155.82C90.314 156.74 91.314 157.54 92.034 158.22C92.754 158.86 93.214 159.6 93.414 160.44C93.134 161.08 92.614 161.96 91.854 163.08C91.094 164.2 90.254 165.2 89.334 166.08C88.454 166.96 87.614 167.4 86.814 167.4C86.494 167.4 86.174 167.3 85.854 167.1C85.454 167.1 84.894 166.8 84.174 166.2C83.494 165.6 82.614 164.76 81.534 163.68C80.134 162.2 79.294 161.46 79.014 161.46C76.894 162.82 75.434 163.74 74.634 164.22C73.874 164.7 72.794 165.22 71.394 165.78C70.034 166.3 68.694 166.56 67.374 166.56C65.134 166.56 63.174 165.66 61.494 163.86C61.414 163.62 61.274 163.38 61.074 163.14C60.914 162.86 60.754 162.6 60.594 162.36C60.194 161.84 59.894 161.38 59.694 160.98C59.534 160.54 59.454 160.02 59.454 159.42C59.734 156.54 60.394 154.12 61.434 152.16C62.514 150.16 63.794 148.54 65.274 147.3C66.754 146.02 68.514 144.82 70.554 143.7ZM103.973 150.12C103.613 150.12 103.193 150.18 102.713 150.3C102.433 150.34 102.153 150.38 101.873 150.42C101.633 150.46 101.393 150.48 101.153 150.48C100.593 150.48 100.173 150.36 99.8925 150.12C99.1725 148.04 98.8125 146.14 98.8125 144.42C98.8125 142.78 99.1725 141.36 99.8925 140.16C100.653 140.16 101.473 140.2 102.353 140.28C102.833 140.32 103.313 140.36 103.793 140.4C104.393 140.4 104.873 140.26 105.233 139.98C105.593 139.66 105.893 139.06 106.133 138.18C106.373 137.3 106.593 135.98 106.793 134.22C107.153 133.58 107.333 132.98 107.333 132.42C107.333 132.14 107.353 131.92 107.393 131.76C107.473 131.6 107.613 131.4 107.813 131.16C108.253 130.84 108.973 130.54 109.973 130.26C111.253 129.9 112.193 129.56 112.793 129.24C113.113 129.24 113.553 129.4 114.113 129.72C114.393 129.88 114.653 130.02 114.893 130.14C115.173 130.26 115.453 130.32 115.733 130.32H116.633C116.433 130.76 115.793 134.04 114.713 140.16C115.873 139.92 117.413 139.68 119.333 139.44C120.333 139.28 121.353 139.12 122.393 138.96C123.473 138.76 124.513 138.52 125.513 138.24V140.16C125.033 140.4 124.693 141.02 124.493 142.02C124.333 142.98 124.233 144.22 124.193 145.74C124.153 146.5 124.093 147.2 124.013 147.84C123.933 148.48 123.813 148.9 123.653 149.1C123.413 149.34 122.853 149.54 121.973 149.7C121.133 149.82 120.173 149.88 119.093 149.88C118.013 149.88 116.973 149.82 115.973 149.7C115.013 149.54 114.273 149.34 113.753 149.1V157.02H114.593C114.913 156.78 115.253 156.54 115.613 156.3C115.973 156.06 116.233 155.86 116.393 155.7C116.553 155.54 116.633 155.3 116.633 154.98C117.473 154.98 118.113 155.12 118.553 155.4C118.993 155.64 119.453 156.02 119.933 156.54C120.533 157.22 121.093 157.68 121.613 157.92V158.88C121.053 159.2 120.633 159.56 120.353 159.96C120.073 160.36 119.773 160.88 119.453 161.52C119.253 162.08 119.013 162.52 118.733 162.84C117.733 163.8 116.113 164.76 113.873 165.72C111.633 166.64 109.713 167.1 108.113 167.1C107.593 167.1 107.153 167.04 106.793 166.92C104.673 165.36 103.613 163.18 103.613 160.38C103.613 159.22 103.813 157.68 104.213 155.76C104.533 154.08 104.693 152.94 104.693 152.34C104.693 151.34 104.453 150.6 103.973 150.12ZM140.206 146.04C139.286 147.04 138.626 147.9 138.226 148.62C137.826 149.3 137.626 150.28 137.626 151.56C138.906 151.12 140.186 150.62 141.466 150.06C142.746 149.46 143.906 148.9 144.946 148.38L146.806 147.48C146.806 147 146.646 146.66 146.326 146.46C146.046 146.22 145.706 146.08 145.306 146.04C144.666 145.2 143.866 144.76 142.906 144.72C141.986 144.72 141.086 145.16 140.206 146.04ZM133.666 161.76C131.826 159.64 130.906 156.76 130.906 153.12C130.906 150.52 131.426 148.02 132.466 145.62C133.506 143.18 134.886 141.38 136.606 140.22C137.486 139.62 138.386 139.14 139.306 138.78C140.266 138.42 141.366 138.26 142.606 138.3C145.166 138.62 147.286 139.16 148.966 139.92C150.686 140.64 152.106 141.82 153.226 143.46C154.346 145.06 155.086 147.26 155.446 150.06C155.446 150.38 155.326 150.64 155.086 150.84C154.886 151 154.626 151.08 154.306 151.08C152.586 151.08 150.626 151.6 148.426 152.64C146.266 153.64 144.326 154.78 142.606 156.06V157.02L146.506 158.88C147.586 158.36 148.466 157.86 149.146 157.38C149.826 156.86 150.606 156.2 151.486 155.4C152.606 154.36 153.546 153.6 154.306 153.12H155.446C155.606 153.48 155.846 153.78 156.166 154.02C156.486 154.26 156.906 154.54 157.426 154.86C158.186 155.3 158.786 155.74 159.226 156.18C159.666 156.58 160.006 157.16 160.246 157.92L159.646 158.7C158.846 159.94 157.586 161.12 155.866 162.24C154.146 163.36 152.206 164.26 150.046 164.94C147.886 165.62 145.746 165.96 143.626 165.96C141.626 165.96 139.766 165.62 138.046 164.94C136.326 164.26 134.866 163.2 133.666 161.76ZM187.655 129C189.535 129.04 191.035 129.76 192.155 131.16C193.315 132.52 193.895 134.14 193.895 136.02C193.895 136.78 193.755 137.66 193.475 138.66C193.355 139.02 193.295 139.5 193.295 140.1C193.295 140.7 193.275 141.32 193.235 141.96C193.235 142.56 193.155 143.06 192.995 143.46C192.075 145.26 190.875 146.76 189.395 147.96C187.915 149.16 185.775 150.64 182.975 152.4L183.035 154.92C183.035 156.2 182.855 156.96 182.495 157.2L176.135 158.04L175.955 157.32C175.995 157.04 176.015 156.08 176.015 154.44C176.015 152.2 176.035 150.42 176.075 149.1C176.115 147.78 176.235 147.08 176.435 147C176.915 146.76 177.595 146.64 178.475 146.64C179.155 146.64 179.675 146.58 180.035 146.46C181.475 146.1 182.755 145.42 183.875 144.42C184.995 143.42 185.915 142.22 186.635 140.82C186.075 139.82 185.615 138.88 185.255 138C184.815 137.92 184.235 137.88 183.515 137.88C182.675 137.88 181.975 138 181.415 138.24C180.895 138.48 180.255 138.9 179.495 139.5L178.115 140.52C178.155 140.64 178.175 140.82 178.175 141.06C178.175 141.54 178.035 141.9 177.755 142.14L177.335 142.62L176.555 142.5C175.875 141.14 175.195 139.96 174.515 138.96C173.875 137.96 173.195 137.3 172.475 136.98C172.435 136.78 172.415 136.52 172.415 136.2C172.415 135.76 172.575 135.18 172.895 134.46C173.735 134.38 174.575 134.12 175.415 133.68C176.255 133.24 177.255 132.64 178.415 131.88C178.975 131.52 179.555 131.16 180.155 130.8C180.755 130.4 181.275 130.12 181.715 129.96L187.655 129ZM184.955 158.16L185.015 160.86C185.015 163.38 184.675 165.1 183.995 166.02L175.955 166.2L175.655 165.9C175.535 165.66 175.475 165.2 175.475 164.52C175.475 163.36 175.635 161.66 175.955 159.42C176.195 159.3 176.635 159.2 177.275 159.12C177.955 159.04 178.655 158.96 179.375 158.88C182.215 158.56 183.815 158.22 184.175 157.86L184.955 158.16Z" fill="#7FA09F"/>
</svg>
