<svg width="18" height="25" viewBox="0 0 18 25" fill="none" xmlns="http://www.w3.org/2000/svg">
<path d="M7.61475 2.28121C6.1822 0.599522 3.6576 0.397555 1.97591 1.83011C0.29422 3.26266 0.0922532 5.78725 1.52481 7.46895L4.56978 4.87508L7.61475 2.28121ZM4.63463 4.9512L8.45857 6.12485C8.85955 4.8184 8.56579 3.39765 7.6796 2.35734L4.63463 4.9512ZM4.00004 7.0188L0.176093 5.84515C-0.201799 7.07638 0.0362711 8.41426 0.815705 9.43955L4.00004 7.0188ZM5.42974 8.89947L9.40893 9.30696C9.5123 8.29752 9.22817 7.28652 8.61407 6.47872L5.42974 8.89947ZM5.20053 11.1378L1.22134 10.7303C1.14503 11.4755 1.27951 12.2272 1.60948 12.8997L5.20053 11.1378ZM6.12281 13.0175L10.1136 12.7462C10.0784 12.2281 9.9426 11.7218 9.71386 11.2556L6.12281 13.0175ZM6.26432 15.0992L2.27354 15.3705C2.28184 15.4927 2.29576 15.6145 2.31525 15.7354L6.26432 15.0992ZM6.55896 16.9279L2.60989 17.5642C2.90417 19.3907 4.41259 20.777 6.25738 20.9165C8.10216 21.056 9.8019 19.9122 10.3675 18.1507L6.55896 16.9279ZM7.17241 15.0173L4.39428 12.1395C3.91958 12.5977 3.56561 13.1663 3.3639 13.7945L7.17241 15.0173ZM8.78721 13.4585L11.5653 16.3363C11.9969 15.9198 12.3292 15.4115 12.5377 14.8491L8.78721 13.4585ZM9.57231 11.3412L10.616 7.47973C8.61947 6.94013 6.54085 8.01141 5.82183 9.95051L9.57231 11.3412ZM11.3526 11.8224L15.2088 12.8854C15.4917 11.8593 15.3539 10.7628 14.8261 9.8386C14.2982 8.91436 13.4238 8.23861 12.3963 7.96091L11.3526 11.8224ZM7.28505 11.5263C6.69795 13.656 7.94846 15.8584 10.0782 16.4455C12.2079 17.0326 14.4103 15.7821 14.9974 13.6524L11.1412 12.5894L7.28505 11.5263ZM4.56978 4.87508L1.52481 7.46895L1.58965 7.54507L4.63463 4.9512L7.6796 2.35734L7.61475 2.28121L4.56978 4.87508ZM4.63463 4.9512L0.810681 3.77756L0.176093 5.84515L4.00004 7.0188L7.82398 8.19245L8.45857 6.12485L4.63463 4.9512ZM4.00004 7.0188L0.815705 9.43955L2.24541 11.3202L5.42974 8.89947L8.61407 6.47872L7.18437 4.59805L4.00004 7.0188ZM5.42974 8.89947L1.45055 8.49199L1.22134 10.7303L5.20053 11.1378L9.17972 11.5453L9.40893 9.30696L5.42974 8.89947ZM5.20053 11.1378L1.60948 12.8997L2.53177 14.7795L6.12281 13.0175L9.71386 11.2556L8.79157 9.37587L5.20053 11.1378ZM6.12281 13.0175L2.13202 13.2888L2.27354 15.3705L6.26432 15.0992L10.2551 14.8279L10.1136 12.7462L6.12281 13.0175ZM6.26432 15.0992L2.31525 15.7354L2.60989 17.5642L6.55896 16.9279L10.508 16.2917L10.2134 14.4629L6.26432 15.0992ZM6.55896 16.9279L10.3675 18.1507L10.9809 16.2402L7.17241 15.0173L3.3639 13.7945L2.75046 15.7051L6.55896 16.9279ZM7.17241 15.0173L9.95053 17.8952L11.5653 16.3363L8.78721 13.4585L6.00909 10.5806L4.39428 12.1395L7.17241 15.0173ZM8.78721 13.4585L12.5377 14.8491L13.3228 12.7318L9.57231 11.3412L5.82183 9.95051L5.03674 12.0678L8.78721 13.4585ZM9.57231 11.3412L8.52865 15.2026L10.309 15.6838L11.3526 11.8224L12.3963 7.96091L10.616 7.47973L9.57231 11.3412ZM11.3526 11.8224L7.49649 10.7593L7.28505 11.5263L11.1412 12.5894L14.9974 13.6524L15.2088 12.8854L11.3526 11.8224Z" fill="#ECC1C1"/>
<path d="M2.09287 2.68877C1.43637 2.1835 1.31377 1.2417 1.81904 0.585201C2.32431 -0.0713006 3.26612 -0.193898 3.92262 0.311372L3.00774 1.50007L2.09287 2.68877ZM3.08699 1.56106L4.00186 0.372363C4.02043 0.38665 4.03865 0.40137 4.05653 0.41651L3.08699 1.56106ZM3.61155 2.00541L2.70701 3.20199C2.68487 3.18526 2.6632 3.16791 2.64202 3.14996L3.61155 2.00541ZM4.23237 2.47471L3.71864 3.88399C3.57852 3.83292 3.4468 3.76123 3.32783 3.67129L4.23237 2.47471ZM4.98994 2.75087L5.50367 1.34159C5.63064 1.38787 5.75076 1.4511 5.86079 1.52955L4.98994 2.75087ZM5.62496 3.20367L4.80762 4.46143C4.78953 4.44967 4.77169 4.43752 4.75411 4.42499L5.62496 3.20367ZM6.27799 3.62803L5.79702 5.04883C5.67854 5.00872 5.56554 4.95395 5.46065 4.88579L6.27799 3.62803ZM7.03913 3.8857L7.52011 2.4649C7.73942 2.53915 7.93857 2.66315 8.10195 2.82721L7.03913 3.8857ZM7.60215 4.45103L6.55816 5.52809C6.55183 5.52196 6.54555 5.51576 6.53933 5.50952L7.60215 4.45103ZM8.17184 5.00322L7.22529 6.16685C7.19157 6.13942 7.15905 6.11054 7.12784 6.08028L8.17184 5.00322ZM8.77453 5.49347L7.95535 6.75003C7.91129 6.72131 7.86878 6.69029 7.82798 6.65711L8.77453 5.49347ZM9.42617 5.91829L8.80393 7.28314C8.73567 7.25202 8.66984 7.21582 8.60699 7.17485L9.42617 5.91829ZM10.1875 6.26537L10.8097 4.90051C11.0292 5.00059 11.2213 5.15212 11.3698 5.34227L10.1875 6.26537ZM10.6652 6.87724L9.56633 7.89827C9.53712 7.86684 9.50927 7.83416 9.48286 7.80034L10.6652 6.87724ZM11.1962 7.4487L12.295 6.42767C12.3783 6.51724 12.4502 6.61665 12.5093 6.72368L11.1962 7.4487ZM11.5932 8.16782L10.5896 9.28263C10.4655 9.17085 10.3608 9.03911 10.2801 8.89285L11.5932 8.16782ZM12.1729 8.68968L13.1765 7.57487C13.2102 7.60518 13.2424 7.63699 13.2732 7.67021L12.1729 8.68968ZM12.7043 9.26326L12.4058 10.7333C12.098 10.6707 11.8175 10.5132 11.604 10.2827L12.7043 9.26326ZM13.6045 9.44608L13.903 7.97608C14.2002 8.03643 14.4721 8.18543 14.6829 8.40344L13.6045 9.44608ZM14.1493 10.0095L15.2277 8.9669C15.4444 9.19108 15.5859 9.47724 15.6325 9.78557L14.1493 10.0095ZM14.2942 10.9692L13.9143 12.4203C13.3344 12.2685 12.9005 11.7859 12.811 11.1932L14.2942 10.9692ZM15.1833 11.202L15.5633 9.75092C15.982 9.86056 16.333 10.1458 16.526 10.5332L15.1833 11.202ZM15.5445 11.9271L16.8872 11.2583C17.0823 11.65 17.0966 12.1074 16.9264 12.5106L15.5445 11.9271ZM15.2576 12.6067L13.7595 12.6829C13.748 12.4571 13.7878 12.2315 13.8757 12.0232L15.2576 12.6067ZM15.3026 13.4912L16.8007 13.415C16.8213 13.8202 16.6769 14.2165 16.4003 14.5135L15.3026 13.4912ZM14.756 14.0782L13.5631 13.1688C13.5929 13.1296 13.6247 13.092 13.6583 13.056L14.756 14.0782ZM14.2783 14.7048L15.4711 15.6142C15.418 15.6839 15.3589 15.7488 15.2945 15.8081L14.2783 14.7048ZM13.699 15.2384L12.4119 14.468C12.4857 14.3446 12.577 14.2325 12.6828 14.135L13.699 15.2384ZM13.2838 15.932L14.5709 16.7023C14.4572 16.8924 14.3027 17.055 14.1186 17.1783L13.2838 15.932ZM12.6216 16.3755L13.4564 17.6218C13.3552 17.6896 13.2461 17.7448 13.1316 17.7862L12.6216 16.3755ZM11.8254 16.6633L10.3753 16.2799C10.5012 15.8039 10.8525 15.42 11.3155 15.2527L11.8254 16.6633ZM11.5867 17.566L13.0369 17.9495C12.8753 18.5606 12.3478 19.0049 11.7181 19.0602L11.5867 17.566ZM10.6214 17.6508L9.59899 16.5533C9.84353 16.3255 10.1571 16.1858 10.4901 16.1566L10.6214 17.6508ZM10.0475 18.1854L8.97138 17.1405C8.98884 17.1225 9.00675 17.105 9.02509 17.0879L10.0475 18.1854ZM9.50389 18.7453L8.34516 17.7927C8.3714 17.7608 8.39896 17.73 8.42775 17.7003L9.50389 18.7453ZM9.00383 19.3536L10.1626 20.3061C10.1551 20.3152 10.1476 20.3241 10.14 20.333L9.00383 19.3536ZM8.45855 19.9861L9.59467 20.9655C9.37211 21.2237 9.06824 21.3984 8.73313 21.4608L8.45855 19.9861ZM7.62539 20.1413L6.40291 19.272C6.62839 18.9549 6.96828 18.7378 7.3508 18.6666L7.62539 20.1413ZM7.16645 20.7867L5.88748 20.003C5.90533 19.9739 5.92417 19.9453 5.94398 19.9175L7.16645 20.7867ZM6.74074 21.4814L8.01972 22.2652C7.84079 22.5572 7.56733 22.7791 7.24478 22.8942L6.74074 21.4814ZM5.97664 21.754L5.03904 20.5832C5.16912 20.479 5.31565 20.3972 5.47261 20.3413L5.97664 21.754ZM5.35867 22.2489L6.29627 23.4197C6.25763 23.4507 6.21747 23.4797 6.17595 23.5067L5.35867 22.2489ZM4.69671 22.679L5.514 23.9368C4.94499 24.3065 4.19863 24.2482 3.69396 23.7946L4.69671 22.679ZM3.99224 22.0458L2.98948 23.1613C2.69158 22.8936 2.51315 22.5178 2.49396 22.1177L3.99224 22.0458ZM3.95377 21.244L2.4555 21.3158C2.44848 21.1695 2.46293 21.023 2.49838 20.8809L3.95377 21.244ZM4.15408 20.4411L5.54555 19.8809C5.66364 20.1742 5.68601 20.4974 5.60947 20.8042L4.15408 20.4411ZM3.85149 19.6895L2.46002 20.2496C2.39474 20.0875 2.35831 19.9152 2.35236 19.7405L3.85149 19.6895ZM3.825 18.9112L5.32404 18.8574L5.32414 18.8602L3.825 18.9112ZM3.79705 18.1326L2.29801 18.1864C2.29648 18.1437 2.29677 18.101 2.29889 18.0583L3.79705 18.1326ZM3.83578 17.3516L5.1169 16.5713C5.27321 16.828 5.34882 17.1257 5.33394 17.4259L3.83578 17.3516ZM3.36746 16.5826L2.08634 17.3628C1.8625 16.9952 1.80731 16.5493 1.93478 16.1382L3.36746 16.5826ZM3.61121 15.7966L5.11106 15.8183C5.10898 15.9617 5.08636 16.104 5.04389 16.241L3.61121 15.7966ZM3.62251 15.0166L2.12266 14.9949C2.12468 14.8557 2.14604 14.7176 2.18613 14.5843L3.62251 15.0166ZM3.85808 14.2337L5.30037 13.8216C5.37928 14.0978 5.37723 14.3909 5.29446 14.666L3.85808 14.2337ZM3.63584 13.4559L2.19356 13.868C2.12993 13.6453 2.11873 13.4109 2.16085 13.1831L3.63584 13.4559ZM3.78067 12.6727L5.23105 12.2901C5.2875 12.5041 5.29591 12.7279 5.25566 12.9455L3.78067 12.6727ZM3.57563 11.8955L2.12525 12.2781C2.07301 12.0801 2.06187 11.8735 2.09251 11.671L3.57563 11.8955ZM3.69467 11.1089L5.14786 10.7371C5.19769 10.9319 5.20786 11.1346 5.17778 11.3334L3.69467 11.1089ZM3.49764 10.3389L2.04445 10.7107C2.00254 10.5469 1.98863 10.3772 2.00329 10.2088L3.49764 10.3389ZM3.56638 9.5494L4.91377 8.89022C5.03356 9.13507 5.08437 9.40795 5.06072 9.67951L3.56638 9.5494ZM3.20153 8.80364L1.85413 9.46282C1.71025 9.1687 1.66654 8.83558 1.7297 8.5143L3.20153 8.80364ZM3.35929 8.00116L4.7609 7.46686C4.86099 7.72941 4.88532 8.01479 4.83112 8.2905L3.35929 8.00116ZM3.07229 7.2483L1.67068 7.7826C1.65608 7.74429 1.64305 7.70541 1.63163 7.66603L3.07229 7.2483ZM2.85106 6.48531L1.4104 6.90304C1.38015 6.79872 1.36132 6.69143 1.35425 6.58305L2.85106 6.48531ZM2.79998 5.70311L1.30317 5.80085C1.2896 5.59307 1.31945 5.38473 1.3908 5.18911L2.79998 5.70311ZM3.10342 4.87123L4.14644 3.79322C4.57209 4.20506 4.71555 4.82881 4.5126 5.38523L3.10342 4.87123ZM2.45857 4.24731L1.41555 5.32531C0.958265 4.88287 0.829885 4.20006 1.09524 3.62175L2.45857 4.24731ZM2.85407 3.38538L4.2679 2.8843C4.39826 3.25212 4.38014 3.65626 4.2174 4.01094L2.85407 3.38538ZM2.58383 2.6229L1.17 3.12399C1.15555 3.08321 1.14286 3.04182 1.13199 2.99994L2.58383 2.6229ZM1.10009 2.87711C0.89186 2.07528 1.37307 1.25646 2.1749 1.04823C2.97673 0.84 3.79554 1.32121 4.00377 2.12304L2.55193 2.50007L1.10009 2.87711ZM3.00774 1.50007L3.92262 0.311372L4.00186 0.372363L3.08699 1.56106L2.17212 2.74976L2.09287 2.68877L3.00774 1.50007ZM3.08699 1.56106L4.05653 0.41651L4.58109 0.860857L3.61155 2.00541L2.64202 3.14996L2.11746 2.70562L3.08699 1.56106ZM3.61155 2.00541L4.51609 0.808829L5.13691 1.27813L4.23237 2.47471L3.32783 3.67129L2.70701 3.20199L3.61155 2.00541ZM4.23237 2.47471L4.74611 1.06543L5.50367 1.34159L4.98994 2.75087L4.4762 4.16015L3.71864 3.88399L4.23237 2.47471ZM4.98994 2.75087L5.86079 1.52955L6.49582 1.98235L5.62496 3.20367L4.75411 4.42499L4.11909 3.97219L4.98994 2.75087ZM5.62496 3.20367L6.4423 1.94591L7.09533 2.37028L6.27799 3.62803L5.46065 4.88579L4.80762 4.46143L5.62496 3.20367ZM6.27799 3.62803L6.75897 2.20724L7.52011 2.4649L7.03913 3.8857L6.55816 5.3065L5.79702 5.04883L6.27799 3.62803ZM7.03913 3.8857L8.10195 2.82721L8.66498 3.39253L7.60215 4.45103L6.53933 5.50952L5.97631 4.94419L7.03913 3.8857ZM7.60215 4.45103L8.64615 3.37396L9.21583 3.92615L8.17184 5.00322L7.12784 6.08028L6.55816 5.52809L7.60215 4.45103ZM8.17184 5.00322L9.11838 3.83958L9.72107 4.32983L8.77453 5.49347L7.82798 6.65711L7.22529 6.16685L8.17184 5.00322ZM8.77453 5.49347L9.5937 4.23691L10.2453 4.66173L9.42617 5.91829L8.60699 7.17485L7.95535 6.75003L8.77453 5.49347ZM9.42617 5.91829L10.0484 4.55344L10.8097 4.90051L10.1875 6.26537L9.56524 7.63022L8.80393 7.28314L9.42617 5.91829ZM10.1875 6.26537L11.3698 5.34227L11.8475 5.95415L10.6652 6.87724L9.48286 7.80034L9.00515 7.18846L10.1875 6.26537ZM10.6652 6.87724L11.7641 5.85621L12.295 6.42767L11.1962 7.4487L10.0973 8.46974L9.56633 7.89827L10.6652 6.87724ZM11.1962 7.4487L12.5093 6.72368L12.9064 7.4428L11.5932 8.16782L10.2801 8.89285L9.88304 8.17373L11.1962 7.4487ZM11.5932 8.16782L12.5968 7.05302L13.1765 7.57487L12.1729 8.68968L11.1693 9.80448L10.5896 9.28263L11.5932 8.16782ZM12.1729 8.68968L13.2732 7.67021L13.8047 8.24379L12.7043 9.26326L11.604 10.2827L11.0726 9.70915L12.1729 8.68968ZM12.7043 9.26326L13.0029 7.79327L13.903 7.97608L13.6045 9.44608L13.306 10.9161L12.4058 10.7333L12.7043 9.26326ZM13.6045 9.44608L14.6829 8.40344L15.2277 8.9669L14.1493 10.0095L13.0709 11.0522L12.5261 10.4887L13.6045 9.44608ZM14.1493 10.0095L15.6325 9.78557L15.7774 10.7452L14.2942 10.9692L12.811 11.1932L12.6661 10.2335L14.1493 10.0095ZM14.2942 10.9692L14.6742 9.51812L15.5633 9.75092L15.1833 11.202L14.8034 12.6531L13.9143 12.4203L14.2942 10.9692ZM15.1833 11.202L16.526 10.5332L16.8872 11.2583L15.5445 11.9271L14.2019 12.5959L13.8407 11.8708L15.1833 11.202ZM15.5445 11.9271L16.9264 12.5106L16.6395 13.1902L15.2576 12.6067L13.8757 12.0232L14.1627 11.3436L15.5445 11.9271ZM15.2576 12.6067L16.7557 12.5304L16.8007 13.415L15.3026 13.4912L13.8046 13.5675L13.7595 12.6829L15.2576 12.6067ZM15.3026 13.4912L16.4003 14.5135L15.8537 15.1005L14.756 14.0782L13.6583 13.056L14.2049 12.4689L15.3026 13.4912ZM14.756 14.0782L15.9488 14.9877L15.4711 15.6142L14.2783 14.7048L13.0854 13.7954L13.5631 13.1688L14.756 14.0782ZM14.2783 14.7048L15.2945 15.8081L14.7152 16.3417L13.699 15.2384L12.6828 14.135L13.262 13.6015L14.2783 14.7048ZM13.699 15.2384L14.9861 16.0087L14.5709 16.7023L13.2838 15.932L11.9967 15.1617L12.4119 14.468L13.699 15.2384ZM13.2838 15.932L14.1186 17.1783L13.4564 17.6218L12.6216 16.3755L11.7869 15.1293L12.4491 14.6857L13.2838 15.932ZM12.6216 16.3755L13.1316 17.7862L12.3354 18.074L11.8254 16.6633L11.3155 15.2527L12.1117 14.9649L12.6216 16.3755ZM11.8254 16.6633L13.2756 17.0468L13.0369 17.9495L11.5867 17.566L10.1366 17.1825L10.3753 16.2799L11.8254 16.6633ZM11.5867 17.566L11.7181 19.0602L10.7528 19.1451L10.6214 17.6508L10.4901 16.1566L11.4554 16.0717L11.5867 17.566ZM10.6214 17.6508L11.6438 18.7484L11.0699 19.283L10.0475 18.1854L9.02509 17.0879L9.59899 16.5533L10.6214 17.6508ZM10.0475 18.1854L11.1237 19.2304L10.58 19.7902L9.50389 18.7453L8.42775 17.7003L8.97138 17.1405L10.0475 18.1854ZM9.50389 18.7453L10.6626 19.6978L10.1626 20.3061L9.00383 19.3536L7.8451 18.4011L8.34516 17.7927L9.50389 18.7453ZM9.00383 19.3536L10.14 20.333L9.59467 20.9655L8.45855 19.9861L7.32243 19.0067L7.8677 18.3742L9.00383 19.3536ZM8.45855 19.9861L8.73313 21.4608L7.89997 21.6159L7.62539 20.1413L7.3508 18.6666L8.18397 18.5115L8.45855 19.9861ZM7.62539 20.1413L8.84786 21.0105L8.38892 21.6559L7.16645 20.7867L5.94398 19.9175L6.40291 19.272L7.62539 20.1413ZM7.16645 20.7867L8.44542 21.5704L8.01972 22.2652L6.74074 21.4814L5.46177 20.6977L5.88748 20.003L7.16645 20.7867ZM6.74074 21.4814L7.24478 22.8942L6.48067 23.1668L5.97664 21.754L5.47261 20.3413L6.23671 20.0686L6.74074 21.4814ZM5.97664 21.754L6.91424 22.9249L6.29627 23.4197L5.35867 22.2489L4.42107 21.078L5.03904 20.5832L5.97664 21.754ZM5.35867 22.2489L6.17595 23.5067L5.514 23.9368L4.69671 22.679L3.87943 21.4212L4.54139 20.9911L5.35867 22.2489ZM4.69671 22.679L3.69396 23.7946L2.98948 23.1613L3.99224 22.0458L4.99499 20.9302L5.69947 21.5635L4.69671 22.679ZM3.99224 22.0458L2.49396 22.1177L2.4555 21.3158L3.95377 21.244L5.45205 21.1721L5.49051 21.9739L3.99224 22.0458ZM3.95377 21.244L2.49838 20.8809L2.69869 20.078L4.15408 20.4411L5.60947 20.8042L5.40917 21.6071L3.95377 21.244ZM4.15408 20.4411L2.76261 21.0013L2.46002 20.2496L3.85149 19.6895L5.24297 19.1293L5.54555 19.8809L4.15408 20.4411ZM3.85149 19.6895L2.35236 19.7405L2.32587 18.9622L3.825 18.9112L5.32414 18.8602L5.35062 19.6384L3.85149 19.6895ZM3.825 18.9112L2.32597 18.965L2.29801 18.1864L3.79705 18.1326L5.29608 18.0788L5.32404 18.8574L3.825 18.9112ZM3.79705 18.1326L2.29889 18.0583L2.33762 17.2773L3.83578 17.3516L5.33394 17.4259L5.29521 18.2069L3.79705 18.1326ZM3.83578 17.3516L2.55466 18.1318L2.08634 17.3628L3.36746 16.5826L4.64858 15.8024L5.1169 16.5713L3.83578 17.3516ZM3.36746 16.5826L1.93478 16.1382L2.17853 15.3523L3.61121 15.7966L5.04389 16.241L4.80014 17.0269L3.36746 16.5826ZM3.61121 15.7966L2.11137 15.7749L2.12266 14.9949L3.62251 15.0166L5.12235 15.0383L5.11106 15.8183L3.61121 15.7966ZM3.62251 15.0166L2.18613 14.5843L2.42171 13.8015L3.85808 14.2337L5.29446 14.666L5.05888 15.4488L3.62251 15.0166ZM3.85808 14.2337L2.4158 14.6458L2.19356 13.868L3.63584 13.4559L5.07812 13.0438L5.30037 13.8216L3.85808 14.2337ZM3.63584 13.4559L2.16085 13.1831L2.30568 12.4L3.78067 12.6727L5.25566 12.9455L5.11083 13.7287L3.63584 13.4559ZM3.78067 12.6727L2.3303 13.0554L2.12525 12.2781L3.57563 11.8955L5.026 11.5129L5.23105 12.2901L3.78067 12.6727ZM3.57563 11.8955L2.09251 11.671L2.21156 10.8845L3.69467 11.1089L5.17778 11.3334L5.05874 12.12L3.57563 11.8955ZM3.69467 11.1089L2.24148 11.4807L2.04445 10.7107L3.49764 10.3389L4.95083 9.96706L5.14786 10.7371L3.69467 11.1089ZM3.49764 10.3389L2.00329 10.2088L2.07203 9.41929L3.56638 9.5494L5.06072 9.67951L4.99199 10.469L3.49764 10.3389ZM3.56638 9.5494L2.21898 10.2086L1.85413 9.46282L3.20153 8.80364L4.54893 8.14446L4.91377 8.89022L3.56638 9.5494ZM3.20153 8.80364L1.7297 8.5143L1.88746 7.71182L3.35929 8.00116L4.83112 8.2905L4.67336 9.09298L3.20153 8.80364ZM3.35929 8.00116L1.95767 8.53546L1.67068 7.7826L3.07229 7.2483L4.47391 6.714L4.7609 7.46686L3.35929 8.00116ZM3.07229 7.2483L1.63163 7.66603L1.4104 6.90304L2.85106 6.48531L4.29172 6.06758L4.51295 6.83057L3.07229 7.2483ZM2.85106 6.48531L1.35425 6.58305L1.30317 5.80085L2.79998 5.70311L4.2968 5.60538L4.34787 6.38757L2.85106 6.48531ZM2.79998 5.70311L1.3908 5.18911L1.69423 4.35722L3.10342 4.87123L4.5126 5.38523L4.20917 6.21711L2.79998 5.70311ZM3.10342 4.87123L2.06039 5.94923L1.41555 5.32531L2.45857 4.24731L3.5016 3.1693L4.14644 3.79322L3.10342 4.87123ZM2.45857 4.24731L1.09524 3.62175L1.49074 2.75982L2.85407 3.38538L4.2174 4.01094L3.82191 4.87287L2.45857 4.24731ZM2.85407 3.38538L1.44024 3.88647L1.17 3.12399L2.58383 2.6229L3.99766 2.12182L4.2679 2.8843L2.85407 3.38538ZM2.58383 2.6229L1.13199 2.99994L1.10009 2.87711L2.55193 2.50007L4.00377 2.12304L4.03567 2.24587L2.58383 2.6229Z" fill="#322E22"/>
</svg>
