<svg width="17" height="25" viewBox="0 0 17 25" fill="none" xmlns="http://www.w3.org/2000/svg">
<path d="M16.5456 6.70189C16.9628 4.5325 15.5423 2.43567 13.3729 2.01847C11.2035 1.60128 9.1067 3.02172 8.68951 5.19111L12.6175 5.9465L16.5456 6.70189ZM12.5987 6.0447L16.2543 7.66844C16.3778 7.3903 16.4692 7.09896 16.5267 6.80009L12.5987 6.0447ZM11.7931 7.85826L14.4796 10.8218C14.8924 10.4476 15.2225 9.99124 15.4487 9.482L11.7931 7.85826ZM10.1989 9.30336L7.51246 6.33978C7.07988 6.73192 6.73838 7.21401 6.51196 7.75219L10.1989 9.30336ZM9.27055 11.5101L10.7113 15.2416C11.7252 14.8501 12.5361 14.063 12.9575 13.0612L9.27055 11.5101ZM7.39303 12.235L5.95226 8.50348C4.75232 8.96679 3.84839 9.97888 3.52307 11.2233C3.19776 12.4678 3.49075 13.7928 4.31045 14.7841L7.39303 12.235ZM8.09274 13.0812L5.01017 15.6302C5.02431 15.6473 5.03859 15.6643 5.05302 15.6812L8.09274 13.0812ZM9.33681 14.5356L12.8293 12.5857C12.7003 12.3545 12.5486 12.1368 12.3765 11.9356L9.33681 14.5356ZM10.2887 16.2406L14.1961 15.3846C14.1122 15.0016 13.9724 14.633 13.7812 14.2906L10.2887 16.2406ZM6.56732 17.9453C7.04005 20.1033 9.17265 21.4694 11.3306 20.9967C13.4886 20.524 14.8547 18.3914 14.382 16.2334L10.4747 17.0894L6.56732 17.9453ZM12.6175 5.9465L8.68951 5.19111L8.67063 5.28931L12.5987 6.0447L16.5267 6.80009L16.5456 6.70189L12.6175 5.9465ZM12.5987 6.0447L8.94304 4.42096L8.1375 6.23452L11.7931 7.85826L15.4487 9.482L16.2543 7.66844L12.5987 6.0447ZM11.7931 7.85826L9.10662 4.89468L7.51246 6.33978L10.1989 9.30336L12.8854 12.2669L14.4796 10.8218L11.7931 7.85826ZM10.1989 9.30336L6.51196 7.75219L5.58356 9.9589L9.27055 11.5101L12.9575 13.0612L13.8859 10.8545L10.1989 9.30336ZM9.27055 11.5101L7.82979 7.77856L5.95226 8.50348L7.39303 12.235L8.8338 15.9665L10.7113 15.2416L9.27055 11.5101ZM7.39303 12.235L4.31045 14.7841L5.01017 15.6302L8.09274 13.0812L11.1753 10.5321L10.4756 9.68594L7.39303 12.235ZM8.09274 13.0812L5.05302 15.6812L6.29709 17.1356L9.33681 14.5356L12.3765 11.9356L11.1325 10.4811L8.09274 13.0812ZM9.33681 14.5356L5.8443 16.4856L6.79622 18.1905L10.2887 16.2406L13.7812 14.2906L12.8293 12.5857L9.33681 14.5356ZM10.2887 16.2406L6.38138 17.0965L6.56732 17.9453L10.4747 17.0894L14.382 16.2334L14.1961 15.3846L10.2887 16.2406Z" fill="#ECC1C1"/>
<path d="M14.9517 2.68877C15.6082 2.1835 15.7308 1.2417 15.2255 0.585201C14.7202 -0.0713006 13.7784 -0.193898 13.1219 0.311372L14.0368 1.50007L14.9517 2.68877ZM13.9576 1.56106L13.0427 0.372363C13.0241 0.38665 13.0059 0.40137 12.988 0.41651L13.9576 1.56106ZM13.433 2.00541L14.3375 3.20199C14.3597 3.18526 14.3813 3.16791 14.4025 3.14996L13.433 2.00541ZM12.8122 2.47471L13.3259 3.88399C13.466 3.83292 13.5977 3.76123 13.7167 3.67129L12.8122 2.47471ZM12.0546 2.75087L11.5409 1.34159C11.4139 1.38787 11.2938 1.4511 11.1838 1.52955L12.0546 2.75087ZM11.4196 3.20367L12.2369 4.46143C12.255 4.44967 12.2729 4.43752 12.2904 4.42499L11.4196 3.20367ZM10.7666 3.62803L11.2475 5.04883C11.366 5.00872 11.479 4.95395 11.5839 4.88579L10.7666 3.62803ZM10.0054 3.8857L9.52444 2.4649C9.30513 2.53915 9.10598 2.66315 8.94259 2.82721L10.0054 3.8857ZM9.44239 4.45103L10.4864 5.52809C10.4927 5.52196 10.499 5.51576 10.5052 5.50952L9.44239 4.45103ZM8.87271 5.00322L9.81925 6.16685C9.85298 6.13942 9.88549 6.11054 9.9167 6.08028L8.87271 5.00322ZM8.27002 5.49347L9.08919 6.75003C9.13325 6.72131 9.17577 6.69029 9.21656 6.65711L8.27002 5.49347ZM7.61837 5.91829L8.24061 7.28314C8.30887 7.25202 8.3747 7.21582 8.43755 7.17485L7.61837 5.91829ZM6.85707 6.26537L6.23483 4.90051C6.01533 5.00059 5.8232 5.15212 5.67474 5.34227L6.85707 6.26537ZM6.37935 6.87724L7.47821 7.89827C7.50742 7.86684 7.53527 7.83416 7.56168 7.80034L6.37935 6.87724ZM5.84837 7.4487L4.74951 6.42767C4.66628 6.51724 4.59432 6.61665 4.53523 6.72368L5.84837 7.4487ZM5.45132 8.16782L6.45492 9.28263C6.57909 9.17085 6.68371 9.03911 6.76446 8.89285L5.45132 8.16782ZM4.87164 8.68968L3.86804 7.57487C3.83438 7.60518 3.80211 7.63699 3.77133 7.67021L4.87164 8.68968ZM4.3402 9.26326L4.63874 10.7333C4.94658 10.6707 5.22702 10.5132 5.44051 10.2827L4.3402 9.26326ZM3.44003 9.44608L3.14149 7.97608C2.84433 8.03643 2.57243 8.18543 2.36165 8.40344L3.44003 9.44608ZM2.89524 10.0095L1.81686 8.9669C1.60011 9.19108 1.45862 9.47724 1.41206 9.78557L2.89524 10.0095ZM2.75032 10.9692L3.13026 12.4203C3.71017 12.2685 4.144 11.7859 4.23351 11.1932L2.75032 10.9692ZM1.8612 11.202L1.48126 9.75092C1.06251 9.86056 0.711549 10.1458 0.51855 10.5332L1.8612 11.202ZM1.5 11.9271L0.157355 11.2583C-0.0377707 11.65 -0.0520965 12.1074 0.118133 12.5106L1.5 11.9271ZM1.78694 12.6067L3.285 12.6829C3.29649 12.4571 3.25677 12.2315 3.16881 12.0232L1.78694 12.6067ZM1.74192 13.4912L0.243855 13.415C0.223228 13.8202 0.367665 14.2165 0.644207 14.5135L1.74192 13.4912ZM2.28858 14.0782L3.48145 13.1688C3.4516 13.1296 3.41984 13.092 3.38629 13.056L2.28858 14.0782ZM2.76629 14.7048L1.57343 15.6142C1.62654 15.6839 1.68565 15.7488 1.75008 15.8081L2.76629 14.7048ZM3.34557 15.2384L4.63267 14.468C4.55881 14.3446 4.46758 14.2325 4.36178 14.135L3.34557 15.2384ZM3.76071 15.932L2.47361 16.7023C2.58739 16.8924 2.74188 17.055 2.92597 17.1783L3.76071 15.932ZM4.42293 16.3755L3.58819 17.6218C3.68938 17.6896 3.79845 17.7448 3.91299 17.7862L4.42293 16.3755ZM5.2191 16.6633L6.66925 16.2799C6.54339 15.8039 6.19201 15.42 5.72905 15.2527L5.2191 16.6633ZM5.4578 17.566L4.00765 17.9495C4.16927 18.5606 4.69672 19.0049 5.32646 19.0602L5.4578 17.566ZM6.42313 17.6508L7.44556 16.5533C7.20101 16.3255 6.8874 16.1858 6.55447 16.1566L6.42313 17.6508ZM6.99702 18.1854L8.07317 17.1405C8.05571 17.1225 8.03779 17.105 8.01945 17.0879L6.99702 18.1854ZM7.54065 18.7453L8.69938 17.7927C8.67314 17.7608 8.64559 17.73 8.6168 17.7003L7.54065 18.7453ZM8.04072 19.3536L6.88198 20.3061C6.88942 20.3152 6.89695 20.3241 6.90459 20.333L8.04072 19.3536ZM8.586 19.9861L7.44987 20.9655C7.67244 21.2237 7.9763 21.3984 8.31141 21.4608L8.586 19.9861ZM9.41916 20.1413L10.6416 19.272C10.4162 18.9549 10.0763 18.7378 9.69374 18.6666L9.41916 20.1413ZM9.8781 20.7867L11.1571 20.003C11.1392 19.9739 11.1204 19.9453 11.1006 19.9175L9.8781 20.7867ZM10.3038 21.4814L9.02483 22.2652C9.20376 22.5572 9.47722 22.7791 9.79977 22.8942L10.3038 21.4814ZM11.0679 21.754L12.0055 20.5832C11.8754 20.479 11.7289 20.3972 11.5719 20.3413L11.0679 21.754ZM11.6859 22.2489L10.7483 23.4197C10.7869 23.4507 10.8271 23.4797 10.8686 23.5067L11.6859 22.2489ZM12.3478 22.679L11.5305 23.9368C12.0996 24.3065 12.8459 24.2482 13.3506 23.7946L12.3478 22.679ZM13.0523 22.0458L14.0551 23.1613C14.353 22.8936 14.5314 22.5178 14.5506 22.1177L13.0523 22.0458ZM13.0908 21.244L14.589 21.3158C14.5961 21.1695 14.5816 21.023 14.5462 20.8809L13.0908 21.244ZM12.8905 20.4411L11.499 19.8809C11.3809 20.1742 11.3585 20.4974 11.4351 20.8042L12.8905 20.4411ZM13.1931 19.6895L14.5845 20.2496C14.6498 20.0875 14.6862 19.9152 14.6922 19.7405L13.1931 19.6895ZM13.2195 18.9112L11.7205 18.8574L11.7204 18.8602L13.2195 18.9112ZM13.2475 18.1326L14.7465 18.1864C14.7481 18.1437 14.7478 18.101 14.7457 18.0583L13.2475 18.1326ZM13.2088 17.3516L11.9276 16.5713C11.7713 16.828 11.6957 17.1257 11.7106 17.4259L13.2088 17.3516ZM13.6771 16.5826L14.9582 17.3628C15.182 16.9952 15.2372 16.5493 15.1098 16.1382L13.6771 16.5826ZM13.4333 15.7966L11.9335 15.8183C11.9356 15.9617 11.9582 16.104 12.0007 16.241L13.4333 15.7966ZM13.422 15.0166L14.9219 14.9949C14.9199 14.8557 14.8985 14.7176 14.8584 14.5843L13.422 15.0166ZM13.1865 14.2337L11.7442 13.8216C11.6653 14.0978 11.6673 14.3909 11.7501 14.666L13.1865 14.2337ZM13.4087 13.4559L14.851 13.868C14.9146 13.6453 14.9258 13.4109 14.8837 13.1831L13.4087 13.4559ZM13.2639 12.6727L11.8135 12.2901C11.757 12.5041 11.7486 12.7279 11.7889 12.9455L13.2639 12.6727ZM13.4689 11.8955L14.9193 12.2781C14.9715 12.0801 14.9827 11.8735 14.952 11.671L13.4689 11.8955ZM13.3499 11.1089L11.8967 10.7371C11.8469 10.9319 11.8367 11.1346 11.8668 11.3334L13.3499 11.1089ZM13.5469 10.3389L15.0001 10.7107C15.042 10.5469 15.0559 10.3772 15.0413 10.2088L13.5469 10.3389ZM13.4782 9.5494L12.1308 8.89022C12.011 9.13507 11.9602 9.40795 11.9838 9.67951L13.4782 9.5494ZM13.843 8.80364L15.1904 9.46282C15.3343 9.1687 15.378 8.83558 15.3148 8.5143L13.843 8.80364ZM13.6853 8.00116L12.2836 7.46686C12.1836 7.72941 12.1592 8.01479 12.2134 8.2905L13.6853 8.00116ZM13.9722 7.2483L15.3739 7.7826C15.3885 7.74429 15.4015 7.70541 15.4129 7.66603L13.9722 7.2483ZM14.1935 6.48531L15.6341 6.90304C15.6644 6.79872 15.6832 6.69143 15.6903 6.58305L14.1935 6.48531ZM14.2446 5.70311L15.7414 5.80085C15.7549 5.59307 15.7251 5.38473 15.6537 5.18911L14.2446 5.70311ZM13.9411 4.87123L12.8981 3.79322C12.4725 4.20506 12.329 4.82881 12.5319 5.38523L13.9411 4.87123ZM14.586 4.24731L15.629 5.32531C16.0863 4.88287 16.2147 4.20006 15.9493 3.62175L14.586 4.24731ZM14.1905 3.38538L12.7766 2.8843C12.6463 3.25212 12.6644 3.65626 12.8271 4.01094L14.1905 3.38538ZM14.4607 2.6229L15.8745 3.12399C15.889 3.08321 15.9017 3.04182 15.9126 2.99994L14.4607 2.6229ZM15.9445 2.87711C16.1527 2.07528 15.6715 1.25646 14.8696 1.04823C14.0678 0.84 13.249 1.32121 13.0408 2.12304L14.4926 2.50007L15.9445 2.87711ZM14.0368 1.50007L13.1219 0.311372L13.0427 0.372363L13.9576 1.56106L14.8724 2.74976L14.9517 2.68877L14.0368 1.50007ZM13.9576 1.56106L12.988 0.41651L12.4635 0.860857L13.433 2.00541L14.4025 3.14996L14.9271 2.70562L13.9576 1.56106ZM13.433 2.00541L12.5285 0.808829L11.9076 1.27813L12.8122 2.47471L13.7167 3.67129L14.3375 3.20199L13.433 2.00541ZM12.8122 2.47471L12.2984 1.06543L11.5409 1.34159L12.0546 2.75087L12.5683 4.16015L13.3259 3.88399L12.8122 2.47471ZM12.0546 2.75087L11.1838 1.52955L10.5487 1.98235L11.4196 3.20367L12.2904 4.42499L12.9255 3.97219L12.0546 2.75087ZM11.4196 3.20367L10.6022 1.94591L9.94921 2.37028L10.7666 3.62803L11.5839 4.88579L12.2369 4.46143L11.4196 3.20367ZM10.7666 3.62803L10.2856 2.20724L9.52444 2.4649L10.0054 3.8857L10.4864 5.3065L11.2475 5.04883L10.7666 3.62803ZM10.0054 3.8857L8.94259 2.82721L8.37957 3.39253L9.44239 4.45103L10.5052 5.50952L11.0682 4.94419L10.0054 3.8857ZM9.44239 4.45103L8.39839 3.37396L7.82871 3.92615L8.87271 5.00322L9.9167 6.08028L10.4864 5.52809L9.44239 4.45103ZM8.87271 5.00322L7.92616 3.83958L7.32347 4.32983L8.27002 5.49347L9.21656 6.65711L9.81925 6.16685L8.87271 5.00322ZM8.27002 5.49347L7.45084 4.23691L6.7992 4.66173L7.61837 5.91829L8.43755 7.17485L9.08919 6.75003L8.27002 5.49347ZM7.61837 5.91829L6.99614 4.55344L6.23483 4.90051L6.85707 6.26537L7.47931 7.63022L8.24061 7.28314L7.61837 5.91829ZM6.85707 6.26537L5.67474 5.34227L5.19703 5.95415L6.37935 6.87724L7.56168 7.80034L8.0394 7.18846L6.85707 6.26537ZM6.37935 6.87724L5.28049 5.85621L4.74951 6.42767L5.84837 7.4487L6.94723 8.46974L7.47821 7.89827L6.37935 6.87724ZM5.84837 7.4487L4.53523 6.72368L4.13818 7.4428L5.45132 8.16782L6.76446 8.89285L7.16151 8.17373L5.84837 7.4487ZM5.45132 8.16782L4.44772 7.05302L3.86804 7.57487L4.87164 8.68968L5.87524 9.80448L6.45492 9.28263L5.45132 8.16782ZM4.87164 8.68968L3.77133 7.67021L3.23989 8.24379L4.3402 9.26326L5.44051 10.2827L5.97195 9.70915L4.87164 8.68968ZM4.3402 9.26326L4.04166 7.79327L3.14149 7.97608L3.44003 9.44608L3.73857 10.9161L4.63874 10.7333L4.3402 9.26326ZM3.44003 9.44608L2.36165 8.40344L1.81686 8.9669L2.89524 10.0095L3.97362 11.0522L4.51841 10.4887L3.44003 9.44608ZM2.89524 10.0095L1.41206 9.78557L1.26714 10.7452L2.75032 10.9692L4.23351 11.1932L4.37842 10.2335L2.89524 10.0095ZM2.75032 10.9692L2.37038 9.51812L1.48126 9.75092L1.8612 11.202L2.24113 12.6531L3.13026 12.4203L2.75032 10.9692ZM1.8612 11.202L0.51855 10.5332L0.157355 11.2583L1.5 11.9271L2.84265 12.5959L3.20384 11.8708L1.8612 11.202ZM1.5 11.9271L0.118133 12.5106L0.405071 13.1902L1.78694 12.6067L3.16881 12.0232L2.88187 11.3436L1.5 11.9271ZM1.78694 12.6067L0.288878 12.5304L0.243855 13.415L1.74192 13.4912L3.23998 13.5675L3.285 12.6829L1.78694 12.6067ZM1.74192 13.4912L0.644207 14.5135L1.19088 15.1005L2.28858 14.0782L3.38629 13.056L2.83962 12.4689L1.74192 13.4912ZM2.28858 14.0782L1.09572 14.9877L1.57343 15.6142L2.76629 14.7048L3.95915 13.7954L3.48145 13.1688L2.28858 14.0782ZM2.76629 14.7048L1.75008 15.8081L2.32936 16.3417L3.34557 15.2384L4.36178 14.135L3.7825 13.6015L2.76629 14.7048ZM3.34557 15.2384L2.05847 16.0087L2.47361 16.7023L3.76071 15.932L5.04781 15.1617L4.63267 14.468L3.34557 15.2384ZM3.76071 15.932L2.92597 17.1783L3.58819 17.6218L4.42293 16.3755L5.25767 15.1293L4.59544 14.6857L3.76071 15.932ZM4.42293 16.3755L3.91299 17.7862L4.70916 18.074L5.2191 16.6633L5.72905 15.2527L4.93287 14.9649L4.42293 16.3755ZM5.2191 16.6633L3.76895 17.0468L4.00765 17.9495L5.4578 17.566L6.90795 17.1825L6.66925 16.2799L5.2191 16.6633ZM5.4578 17.566L5.32646 19.0602L6.29178 19.1451L6.42313 17.6508L6.55447 16.1566L5.58915 16.0717L5.4578 17.566ZM6.42313 17.6508L5.4007 18.7484L5.9746 19.283L6.99702 18.1854L8.01945 17.0879L7.44556 16.5533L6.42313 17.6508ZM6.99702 18.1854L5.92088 19.2304L6.46451 19.7902L7.54065 18.7453L8.6168 17.7003L8.07317 17.1405L6.99702 18.1854ZM7.54065 18.7453L6.38192 19.6978L6.88198 20.3061L8.04072 19.3536L9.19945 18.4011L8.69938 17.7927L7.54065 18.7453ZM8.04072 19.3536L6.90459 20.333L7.44987 20.9655L8.586 19.9861L9.72212 19.0067L9.17684 18.3742L8.04072 19.3536ZM8.586 19.9861L8.31141 21.4608L9.14458 21.6159L9.41916 20.1413L9.69374 18.6666L8.86058 18.5115L8.586 19.9861ZM9.41916 20.1413L8.19668 21.0105L8.65562 21.6559L9.8781 20.7867L11.1006 19.9175L10.6416 19.272L9.41916 20.1413ZM9.8781 20.7867L8.59912 21.5704L9.02483 22.2652L10.3038 21.4814L11.5828 20.6977L11.1571 20.003L9.8781 20.7867ZM10.3038 21.4814L9.79977 22.8942L10.5639 23.1668L11.0679 21.754L11.5719 20.3413L10.8078 20.0686L10.3038 21.4814ZM11.0679 21.754L10.1303 22.9249L10.7483 23.4197L11.6859 22.2489L12.6235 21.078L12.0055 20.5832L11.0679 21.754ZM11.6859 22.2489L10.8686 23.5067L11.5305 23.9368L12.3478 22.679L13.1651 21.4212L12.5032 20.9911L11.6859 22.2489ZM12.3478 22.679L13.3506 23.7946L14.0551 23.1613L13.0523 22.0458L12.0496 20.9302L11.3451 21.5635L12.3478 22.679ZM13.0523 22.0458L14.5506 22.1177L14.589 21.3158L13.0908 21.244L11.5925 21.1721L11.554 21.9739L13.0523 22.0458ZM13.0908 21.244L14.5462 20.8809L14.3459 20.078L12.8905 20.4411L11.4351 20.8042L11.6354 21.6071L13.0908 21.244ZM12.8905 20.4411L14.2819 21.0013L14.5845 20.2496L13.1931 19.6895L11.8016 19.1293L11.499 19.8809L12.8905 20.4411ZM13.1931 19.6895L14.6922 19.7405L14.7187 18.9622L13.2195 18.9112L11.7204 18.8602L11.6939 19.6384L13.1931 19.6895ZM13.2195 18.9112L14.7186 18.965L14.7465 18.1864L13.2475 18.1326L11.7485 18.0788L11.7205 18.8574L13.2195 18.9112ZM13.2475 18.1326L14.7457 18.0583L14.7069 17.2773L13.2088 17.3516L11.7106 17.4259L11.7493 18.2069L13.2475 18.1326ZM13.2088 17.3516L14.4899 18.1318L14.9582 17.3628L13.6771 16.5826L12.396 15.8024L11.9276 16.5713L13.2088 17.3516ZM13.6771 16.5826L15.1098 16.1382L14.866 15.3523L13.4333 15.7966L12.0007 16.241L12.2444 17.0269L13.6771 16.5826ZM13.4333 15.7966L14.9332 15.7749L14.9219 14.9949L13.422 15.0166L11.9222 15.0383L11.9335 15.8183L13.4333 15.7966ZM13.422 15.0166L14.8584 14.5843L14.6228 13.8015L13.1865 14.2337L11.7501 14.666L11.9857 15.4488L13.422 15.0166ZM13.1865 14.2337L14.6287 14.6458L14.851 13.868L13.4087 13.4559L11.9664 13.0438L11.7442 13.8216L13.1865 14.2337ZM13.4087 13.4559L14.8837 13.1831L14.7389 12.4L13.2639 12.6727L11.7889 12.9455L11.9337 13.7287L13.4087 13.4559ZM13.2639 12.6727L14.7142 13.0554L14.9193 12.2781L13.4689 11.8955L12.0185 11.5129L11.8135 12.2901L13.2639 12.6727ZM13.4689 11.8955L14.952 11.671L14.833 10.8845L13.3499 11.1089L11.8668 11.3334L11.9858 12.12L13.4689 11.8955ZM13.3499 11.1089L14.8031 11.4807L15.0001 10.7107L13.5469 10.3389L12.0937 9.96706L11.8967 10.7371L13.3499 11.1089ZM13.5469 10.3389L15.0413 10.2088L14.9725 9.41929L13.4782 9.5494L11.9838 9.67951L12.0526 10.469L13.5469 10.3389ZM13.4782 9.5494L14.8256 10.2086L15.1904 9.46282L13.843 8.80364L12.4956 8.14446L12.1308 8.89022L13.4782 9.5494ZM13.843 8.80364L15.3148 8.5143L15.1571 7.71182L13.6853 8.00116L12.2134 8.2905L12.3712 9.09298L13.843 8.80364ZM13.6853 8.00116L15.0869 8.53546L15.3739 7.7826L13.9722 7.2483L12.5706 6.714L12.2836 7.46686L13.6853 8.00116ZM13.9722 7.2483L15.4129 7.66603L15.6341 6.90304L14.1935 6.48531L12.7528 6.06758L12.5316 6.83057L13.9722 7.2483ZM14.1935 6.48531L15.6903 6.58305L15.7414 5.80085L14.2446 5.70311L12.7477 5.60538L12.6967 6.38757L14.1935 6.48531ZM14.2446 5.70311L15.6537 5.18911L15.3503 4.35722L13.9411 4.87123L12.5319 5.38523L12.8354 6.21711L14.2446 5.70311ZM13.9411 4.87123L14.9842 5.94923L15.629 5.32531L14.586 4.24731L13.5429 3.1693L12.8981 3.79322L13.9411 4.87123ZM14.586 4.24731L15.9493 3.62175L15.5538 2.75982L14.1905 3.38538L12.8271 4.01094L13.2226 4.87287L14.586 4.24731ZM14.1905 3.38538L15.6043 3.88647L15.8745 3.12399L14.4607 2.6229L13.0469 2.12182L12.7766 2.8843L14.1905 3.38538ZM14.4607 2.6229L15.9126 2.99994L15.9445 2.87711L14.4926 2.50007L13.0408 2.12304L13.0089 2.24587L14.4607 2.6229Z" fill="#322E22"/>
</svg>
